<?xml version="1.0" encoding="UTF-8"?>
<svg xmlns="http://www.w3.org/2000/svg" id="Layer_2" data-name="Layer 2" viewBox="0 0 466.96 135.86">
  <defs>
    <style>
      .cls-1 {
        fill: #fff;
      }

      .cls-1, .cls-2 {
        fill-rule: evenodd;
        stroke-width: 0px;
      }

      .cls-2 {
        fill: #ea9b39;
      }
    </style>
  </defs>
  <g id="_图层_1" data-name="图层 1">
    <g>
      <path class="cls-1" d="M70.1,3.51l-28.18,56.46c-.33.65-.32,1.43.03,2.07l6.37,11.98c.39.74,1.16,1.2,2,1.2l22.19.03c.63,0,1.13-.51,1.13-1.13,0-.19-.05-.37-.13-.53l-5.67-10.66c-.35-.65-.35-1.43-.02-2.09L97.19,2.72c.77-1.52,2.33-2.49,4.04-2.49h35.91c1.25,0,2.26,1.01,2.26,2.26,0,.35-.08.7-.24,1.02l-29.48,58.43c-.33.65-.32,1.43.02,2.08l17.92,33.93c.58,1.11.16,2.48-.94,3.06-.33.17-.69.26-1.06.26l-45.28-.05H23.74c-1.68,0-3.21-.92-4-2.4L.53,62.62c-.69-1.29-.7-2.84-.05-4.14L28.28,2.74c.77-1.54,2.34-2.51,4.05-2.51h35.74c1.25,0,2.26,1.01,2.26,2.26,0,.35-.08.7-.24,1.01Z"></path>
      <path class="cls-2" d="M203.53.23c1.69,0,3.23.94,4.01,2.43l10.31,19.73c.58,1.11.15,2.48-.96,3.06-.32.17-.68.26-1.05.26h-31.1c-.85,0-1.63.48-2.02,1.24l-17.43,34.42c-.34.67-.32,1.46.04,2.11l6.11,11.1c.4.72,1.16,1.17,1.98,1.17h28.26c.89,0,1.7-.52,2.06-1.34l4.16-9.25c.73-1.62,2.35-2.67,4.13-2.67h33.32c.63,0,1.2.35,1.5.9l1.98,3.73c.26.48.27,1.06.02,1.56l-32.95,65.93c-.56,1.12-1.92,1.57-3.04,1.01-.42-.21-.76-.54-.98-.95l-17.44-32.26c-.4-.73-1.16-1.19-1.99-1.19h-47.01c-1.68,0-3.23-.93-4.01-2.43l-17.99-34.32c-.68-1.29-.69-2.83-.04-4.13L152.23,2.73c.77-1.53,2.33-2.5,4.05-2.5h47.25Z"></path>
      <path class="cls-2" d="M302.23,25.69h-29.21c-.85,0-1.62.47-2.01,1.22l-11.63,22.48c-.34.66-.34,1.45.01,2.1l12.43,23.38c.39.74,1.16,1.2,2,1.2h15.69c.86,0,1.64-.49,2.03-1.25l17.87-35.8c.32-.64.32-1.4,0-2.04l-5.14-10.06c-.39-.76-1.17-1.23-2.02-1.23ZM312.78,0c1.69,0,3.23.93,4.02,2.42l24.32,46.15c.68,1.28.7,2.81.05,4.11l-22.71,46.02c-.76,1.55-2.34,2.52-4.06,2.52h-55.51c-1.57,0-3.03-.81-3.85-2.15l-5.45-8.83c-.82-1.34-.9-3-.19-4.4l8.81-17.59c.34-.67.32-1.46-.05-2.12l-6.38-11.41c-.4-.72-1.16-1.16-1.98-1.16h-29.89c-1.25,0-2.26-1.01-2.26-2.26,0-.35.08-.7.24-1.01L240.13,2.73c.76-1.53,2.33-2.51,4.04-2.51L312.78,0Z"></path>
      <path class="cls-1" d="M330.22,3.55l10.28,19.5c.78,1.49,2.33,2.42,4.01,2.42h21.94c.63,0,1.13.51,1.13,1.13,0,.18-.04.36-.12.52l-36.18,70.82c-.57,1.11-.13,2.48.99,3.05.32.16.67.25,1.03.25h36.16c1.72,0,3.29-.97,4.05-2.51l35.89-72c.38-.77,1.17-1.25,2.03-1.25h29.18c1.25,0,2.26-1.01,2.26-2.26,0-.37-.09-.73-.26-1.05l-10.21-19.5c-.78-1.49-2.33-2.43-4.01-2.43h-96.17c-1.25,0-2.26,1.01-2.26,2.26,0,.37.09.73.26,1.06Z"></path>
      <path class="cls-1" d="M392.93,81.77h16.72c.92,0,1.74-.55,2.09-1.4l1.93-4.66c.24-.58-.03-1.24-.61-1.48-.14-.06-.28-.09-.43-.09h-16.37c-.86,0-1.65.49-2.03,1.27l-2.31,4.72c-.27.56-.04,1.24.52,1.51.15.08.32.11.5.11ZM401.42,64.49h61.3c.91,0,1.74-.55,2.09-1.39l2.06-4.93c.24-.58-.03-1.24-.61-1.48-.14-.06-.29-.09-.44-.09h-60.94c-.86,0-1.65.49-2.03,1.27l-2.45,4.99c-.28.56-.04,1.24.52,1.51.16.08.33.12.5.12ZM410.48,46.41h28.45c.91,0,1.74-.55,2.09-1.39l2.08-4.96c.24-.58-.03-1.24-.61-1.48-.14-.06-.29-.09-.44-.09h-28.09c-.86,0-1.65.49-2.03,1.27l-2.46,5.02c-.28.56-.04,1.24.52,1.52.16.08.33.12.5.12Z"></path>
    </g>
  </g>
</svg>
